<svg width="32" height="32" viewBox="0 0 32 32" fill="none" xmlns="http://www.w3.org/2000/svg">
  <!-- 低多边形风格的赛车轨道logo -->
  <defs>
    <linearGradient id="trackGradient" x1="0%" y1="0%" x2="100%" y2="100%">
      <stop offset="0%" style="stop-color:#0ea5e9;stop-opacity:1" />
      <stop offset="100%" style="stop-color:#0284c7;stop-opacity:1" />
    </linearGradient>
  </defs>
  
  <!-- 外圈轨道 -->
  <path d="M16 2C8.268 2 2 8.268 2 16s6.268 14 14 14 14-6.268 14-14S23.732 2 16 2zm0 25C9.925 27 5 22.075 5 16S9.925 5 16 5s11 4.925 11 11-4.925 11-11 11z" fill="url(#trackGradient)"/>
  
  <!-- 内圈轨道 -->
  <path d="M16 8c-4.418 0-8 3.582-8 8s3.582 8 8 8 8-3.582 8-8-3.582-8-8-8zm0 13c-2.761 0-5-2.239-5-5s2.239-5 5-5 5 2.239 5 5-2.239 5-5 5z" fill="url(#trackGradient)" opacity="0.7"/>
  
  <!-- 赛车图标 (简化的多边形风格) -->
  <polygon points="16,12 18,14 18,16 16,18 14,16 14,14" fill="#ffffff"/>
  <polygon points="15,13 17,13 17,15 15,15" fill="#0ea5e9"/>
  
  <!-- 轨道装饰线 -->
  <circle cx="16" cy="8" r="1" fill="#ffffff" opacity="0.8"/>
  <circle cx="24" cy="16" r="1" fill="#ffffff" opacity="0.8"/>
  <circle cx="16" cy="24" r="1" fill="#ffffff" opacity="0.8"/>
  <circle cx="8" cy="16" r="1" fill="#ffffff" opacity="0.8"/>
</svg>